<svg xmlns="http://www.w3.org/2000/svg" viewBox="0 0 500 500"><g id="freepik--background-complete--inject-143"><rect y="382.4" width="500" height="0.25" style="fill:#ebebeb"></rect><rect x="416.78" y="398.49" width="33.12" height="0.25" style="fill:#ebebeb"></rect><rect x="322.53" y="401.21" width="8.69" height="0.25" style="fill:#ebebeb"></rect><rect x="396.59" y="389.21" width="19.19" height="0.25" style="fill:#ebebeb"></rect><rect x="52.46" y="390.89" width="43.19" height="0.25" style="fill:#ebebeb"></rect><rect x="104.56" y="390.89" width="6.33" height="0.25" style="fill:#ebebeb"></rect><rect x="131.47" y="395.11" width="93.68" height="0.25" style="fill:#ebebeb"></rect><path d="M237,337.8H43.91a5.71,5.71,0,0,1-5.7-5.71V60.66A5.71,5.71,0,0,1,43.91,55H237a5.71,5.71,0,0,1,5.71,5.71V332.09A5.71,5.71,0,0,1,237,337.8ZM43.91,55.2a5.46,5.46,0,0,0-5.45,5.46V332.09a5.46,5.46,0,0,0,5.45,5.46H237a5.47,5.47,0,0,0,5.46-5.46V60.66A5.47,5.47,0,0,0,237,55.2Z" style="fill:#ebebeb"></path><path d="M453.31,337.8H260.21a5.72,5.72,0,0,1-5.71-5.71V60.66A5.72,5.72,0,0,1,260.21,55h193.1A5.71,5.71,0,0,1,459,60.66V332.09A5.71,5.71,0,0,1,453.31,337.8ZM260.21,55.2a5.47,5.47,0,0,0-5.46,5.46V332.09a5.47,5.47,0,0,0,5.46,5.46h193.1a5.47,5.47,0,0,0,5.46-5.46V60.66a5.47,5.47,0,0,0-5.46-5.46Z" style="fill:#ebebeb"></path><polygon points="54.56 383.02 54.56 333.71 77.32 333.71 77.32 287.97 80.53 287.97 80.53 314.19 89.28 314.19 89.28 306.94 105.04 306.94 105.04 281.84 107.96 281.84 107.96 251.16 110.29 251.16 110.29 281.28 115.84 281.28 115.84 325.9 126.34 325.9 126.34 281.28 145.31 281.28 145.31 319.01 165.22 319.01 165.22 273.28 168.43 273.28 168.43 299.49 177.18 299.49 177.18 292.24 192.94 292.24 192.94 267.14 195.86 267.14 195.86 236.47 198.19 236.47 198.19 266.59 203.74 266.59 203.74 311.2 214.24 311.2 214.24 266.59 233.21 266.59 233.21 309.75 246 309.75 246 284.65 248.92 284.65 248.92 253.97 251.25 253.97 251.25 284.09 256.8 284.09 256.8 328.71 267.3 328.71 267.3 284.09 286.27 284.09 286.27 328.71 295.6 328.71 295.6 333.71 311.96 333.71 311.96 287.97 315.17 287.97 315.17 314.19 323.93 314.19 323.93 306.94 339.68 306.94 339.68 281.84 342.6 281.84 342.6 251.16 344.94 251.16 344.94 281.28 350.02 281.28 350.02 278.77 368.99 278.77 368.99 281.28 379.49 281.28 379.49 278.77 385.04 278.77 385.04 248.65 387.37 248.65 387.37 279.33 390.29 279.33 390.29 304.42 406.05 304.42 406.05 311.68 414.8 311.68 414.8 285.46 418.01 285.46 418.01 331.19 440.77 331.19 440.77 383.02 54.56 383.02" style="fill:#e0e0e0"></polygon><circle cx="348.51" cy="127.88" r="27.79" style="fill:#fafafa"></circle><path d="M362.92,127.57a4.83,4.83,0,0,1,4.83-4.83,4.54,4.54,0,0,1,1.39.21,10.45,10.45,0,0,1-.11-1.49,10.23,10.23,0,0,1,10.23-10.23,10.62,10.62,0,0,1,1.89.18,8.93,8.93,0,0,1,16.57,4.52h.15a8.24,8.24,0,1,1,0,16.48H367.62A4.84,4.84,0,0,1,362.92,127.57Z" style="fill:#f0f0f0"></path><path d="M54.33,203.56a4.83,4.83,0,0,1,4.83-4.83,4.92,4.92,0,0,1,1.39.2,9,9,0,0,1-.11-1.48,10.23,10.23,0,0,1,10.23-10.23,9.74,9.74,0,0,1,1.88.18,8.94,8.94,0,0,1,16.58,4.52h.15a8.24,8.24,0,1,1,0,16.48H59A4.82,4.82,0,0,1,54.33,203.56Z" style="fill:#f0f0f0"></path><path d="M216.19,145.84a7.62,7.62,0,0,0-9.84-7.31,16.56,16.56,0,0,0,.17-2.35,16.16,16.16,0,0,0-19.16-15.91,14.15,14.15,0,0,0-26.23,7.15h-.24a13,13,0,1,0,0,26.08h47.87A7.65,7.65,0,0,0,216.19,145.84Z" style="fill:#f0f0f0"></path><path d="M353.42,211.45a9.21,9.21,0,0,0-11.83-8.81,20.13,20.13,0,0,0,.2-2.82,19.48,19.48,0,0,0-19.47-19.48,19.25,19.25,0,0,0-3.59.34,17,17,0,0,0-31.57,8.61l-.28,0a15.69,15.69,0,0,0,0,31.38h57.61A9.2,9.2,0,0,0,353.42,211.45Z" style="fill:#f0f0f0"></path><path d="M302.32,142a3,3,0,0,1,3-3,3,3,0,0,1,.86.13,7,7,0,0,1-.07-.92,6.36,6.36,0,0,1,6.36-6.36,5.66,5.66,0,0,1,1.17.11A5.56,5.56,0,0,1,324,134.81H324a5.13,5.13,0,1,1,0,10.25H305.23A3,3,0,0,1,302.32,142Z" style="fill:#f0f0f0"></path><path d="M101,109.64a3,3,0,0,0-3-3,2.71,2.71,0,0,0-.86.13,7.14,7.14,0,0,0,.07-.93,6.36,6.36,0,0,0-6.36-6.36,6.56,6.56,0,0,0-1.18.11,5.55,5.55,0,0,0-10.3,2.81h-.09a5.13,5.13,0,1,0,0,10.25H98.09A3,3,0,0,0,101,109.64Z" style="fill:#f0f0f0"></path></g><g id="freepik--Shadow--inject-143"><ellipse id="freepik--path--inject-143" cx="250" cy="416.24" rx="193.89" ry="11.32" style="fill:#f5f5f5"></ellipse></g><g id="freepik--Bridge--inject-143"><path d="M48.4,283.74a.5.5,0,0,1-.33-.13.5.5,0,0,1,0-.7L162.86,152.56a.49.49,0,0,1,.7-.05.51.51,0,0,1,.05.71L48.78,283.57A.52.52,0,0,1,48.4,283.74Z" style="fill:#263238"></path><path d="M48.4,295.87a.49.49,0,0,1-.32-.12A.51.51,0,0,1,48,295L163.88,158a.5.5,0,0,1,.71-.06.5.5,0,0,1,.06.7L48.78,295.69A.48.48,0,0,1,48.4,295.87Z" style="fill:#263238"></path><path d="M48.4,308a.47.47,0,0,1-.31-.12.5.5,0,0,1-.08-.7l116.9-143.77a.5.5,0,0,1,.7-.07.49.49,0,0,1,.07.7L48.79,307.81A.51.51,0,0,1,48.4,308Z" style="fill:#263238"></path><path d="M48.4,320.12a.52.52,0,0,1-.31-.1.5.5,0,0,1-.08-.7L165.94,168.84a.49.49,0,0,1,.7-.08.5.5,0,0,1,.08.7L48.8,319.93A.5.5,0,0,1,48.4,320.12Z" style="fill:#263238"></path><path d="M48.4,332.25a.49.49,0,0,1-.3-.1.51.51,0,0,1-.1-.7L167,174.27a.51.51,0,0,1,.7-.1.5.5,0,0,1,.1.7L48.8,332.06A.5.5,0,0,1,48.4,332.25Z" style="fill:#263238"></path><path d="M48.4,344.38a.52.52,0,0,1-.29-.09.5.5,0,0,1-.11-.7L168,179.7a.49.49,0,0,1,.7-.11.51.51,0,0,1,.11.7l-120,163.89A.51.51,0,0,1,48.4,344.38Z" style="fill:#263238"></path><path d="M48.4,356.51a.52.52,0,0,1-.29-.09.51.51,0,0,1-.11-.7l121-170.6a.51.51,0,0,1,.7-.11.5.5,0,0,1,.11.69l-121,170.6A.49.49,0,0,1,48.4,356.51Z" style="fill:#263238"></path><path d="M48.4,368.64a.5.5,0,0,1-.41-.78L170.05,190.55a.5.5,0,1,1,.82.57L48.81,368.42A.47.47,0,0,1,48.4,368.64Z" style="fill:#263238"></path><path d="M48.4,380.77a.6.6,0,0,1-.28-.08A.51.51,0,0,1,48,380L171.08,196a.5.5,0,1,1,.83.55l-123.09,184A.52.52,0,0,1,48.4,380.77Z" style="fill:#263238"></path><path d="M58,378.2a.43.43,0,0,1-.27-.08.49.49,0,0,1-.15-.69l114.56-176a.5.5,0,0,1,.69-.14.49.49,0,0,1,.14.69L58.39,378A.51.51,0,0,1,58,378.2Z" style="fill:#263238"></path><path d="M65.41,378.2a.45.45,0,0,1-.27-.08.5.5,0,0,1-.15-.69l108.15-170.6a.5.5,0,0,1,.84.54L65.83,378A.49.49,0,0,1,65.41,378.2Z" style="fill:#263238"></path><path d="M72.23,378.61a.48.48,0,0,1-.26-.07.49.49,0,0,1-.16-.69L174.17,212.26a.49.49,0,0,1,.68-.17.51.51,0,0,1,.17.69L72.66,378.37A.5.5,0,0,1,72.23,378.61Z" style="fill:#263238"></path><path d="M81.87,375.55a.48.48,0,0,1-.26-.07.5.5,0,0,1-.17-.68l125.45-212a.5.5,0,0,1,.68-.17.5.5,0,0,1,.18.68L82.3,375.31A.51.51,0,0,1,81.87,375.55Z" style="fill:#263238"></path><path d="M89.61,375.55a.54.54,0,0,1-.25-.06.51.51,0,0,1-.19-.68L203.26,173.57a.51.51,0,0,1,.68-.19.5.5,0,0,1,.19.68L90,375.3A.5.5,0,0,1,89.61,375.55Z" style="fill:#263238"></path><path d="M97.34,375.55a.46.46,0,0,1-.23-.06.49.49,0,0,1-.2-.68L201.27,182.65a.5.5,0,1,1,.88.48L97.78,375.29A.49.49,0,0,1,97.34,375.55Z" style="fill:#263238"></path><path d="M105.08,375.55a.49.49,0,0,1-.44-.73l94.65-183.08a.5.5,0,0,1,.67-.22.51.51,0,0,1,.21.68L105.53,375.28A.51.51,0,0,1,105.08,375.55Z" style="fill:#263238"></path><path d="M112.82,375.55a.44.44,0,0,1-.22-.05.5.5,0,0,1-.23-.67l84.93-174a.5.5,0,0,1,.67-.23.51.51,0,0,1,.23.67l-84.93,174A.49.49,0,0,1,112.82,375.55Z" style="fill:#263238"></path><path d="M120.56,375.55a.52.52,0,0,1-.21,0,.51.51,0,0,1-.25-.66l75.21-164.93a.49.49,0,0,1,.66-.25.5.5,0,0,1,.25.66L121,375.26A.49.49,0,0,1,120.56,375.55Z" style="fill:#263238"></path><path d="M447.67,374.87a.51.51,0,0,1-.34-.14L218,159.41a.5.5,0,0,1,.69-.73L448,374a.5.5,0,0,1,0,.71A.52.52,0,0,1,447.67,374.87Z" style="fill:#263238"></path><path d="M432.81,374.87a.49.49,0,0,1-.35-.15L218,164.33a.5.5,0,1,1,.7-.72L433.16,374a.5.5,0,0,1-.35.86Z" style="fill:#263238"></path><path d="M418,374.87a.48.48,0,0,1-.36-.16L216.75,169.24a.49.49,0,0,1,0-.7.5.5,0,0,1,.71,0L418.3,374a.49.49,0,0,1,0,.7A.5.5,0,0,1,418,374.87Z" style="fill:#263238"></path><path d="M403.08,374.87a.52.52,0,0,1-.36-.16L215.51,174.16a.51.51,0,0,1,0-.71.5.5,0,0,1,.71,0L403.45,374a.5.5,0,0,1,0,.71A.52.52,0,0,1,403.08,374.87Z" style="fill:#263238"></path><path d="M388.22,374.87a.5.5,0,0,1-.37-.17L214.28,179.07a.51.51,0,0,1,.05-.71.49.49,0,0,1,.7,0L388.6,374a.51.51,0,0,1-.38.84Z" style="fill:#263238"></path><path d="M373.36,374.87a.53.53,0,0,1-.38-.18L213.05,184a.49.49,0,0,1,.06-.7.51.51,0,0,1,.71.06L373.74,374a.51.51,0,0,1-.06.71A.49.49,0,0,1,373.36,374.87Z" style="fill:#263238"></path><path d="M358.5,374.87a.51.51,0,0,1-.4-.2L211.82,188.89a.5.5,0,0,1,.08-.7.5.5,0,0,1,.7.08L358.89,374.06a.5.5,0,0,1-.08.7A.51.51,0,0,1,358.5,374.87Z" style="fill:#263238"></path><path d="M343.64,374.87a.52.52,0,0,1-.41-.21L210.58,193.8a.5.5,0,1,1,.81-.59L344,374.07a.51.51,0,0,1-.11.7A.53.53,0,0,1,343.64,374.87Z" style="fill:#263238"></path><path d="M328.77,374.87a.5.5,0,0,1-.41-.22l-119-175.94a.5.5,0,0,1,.83-.56l119,175.93a.51.51,0,0,1-.14.7A.47.47,0,0,1,328.77,374.87Z" style="fill:#263238"></path><path d="M313.91,374.87a.52.52,0,0,1-.43-.24l-105.36-171a.48.48,0,0,1,.16-.68.49.49,0,0,1,.69.16l105.37,171a.5.5,0,0,1-.17.69A.5.5,0,0,1,313.91,374.87Z" style="fill:#263238"></path><path d="M299.05,374.87a.51.51,0,0,1-.44-.26L206.88,208.52a.5.5,0,0,1,.88-.49l91.73,166.09a.5.5,0,0,1-.2.68A.44.44,0,0,1,299.05,374.87Z" style="fill:#263238"></path><g style="opacity:0.7000000000000001"><path d="M48.4,283.74a.5.5,0,0,1-.33-.13.5.5,0,0,1,0-.7L162.86,152.56a.49.49,0,0,1,.7-.05.51.51,0,0,1,.05.71L48.78,283.57A.52.52,0,0,1,48.4,283.74Z" style="fill:#fff"></path><path d="M48.4,295.87a.49.49,0,0,1-.32-.12A.51.51,0,0,1,48,295L163.88,158a.5.5,0,0,1,.71-.06.5.5,0,0,1,.06.7L48.78,295.69A.48.48,0,0,1,48.4,295.87Z" style="fill:#fff"></path><path d="M48.4,308a.47.47,0,0,1-.31-.12.5.5,0,0,1-.08-.7l116.9-143.77a.5.5,0,0,1,.7-.07.49.49,0,0,1,.07.7L48.79,307.81A.51.51,0,0,1,48.4,308Z" style="fill:#fff"></path><path d="M48.4,320.12a.52.52,0,0,1-.31-.1.5.5,0,0,1-.08-.7L165.94,168.84a.49.49,0,0,1,.7-.08.5.5,0,0,1,.08.7L48.8,319.93A.5.5,0,0,1,48.4,320.12Z" style="fill:#fff"></path><path d="M48.4,332.25a.49.49,0,0,1-.3-.1.51.51,0,0,1-.1-.7L167,174.27a.51.51,0,0,1,.7-.1.5.5,0,0,1,.1.7L48.8,332.06A.5.5,0,0,1,48.4,332.25Z" style="fill:#fff"></path><path d="M48.4,344.38a.52.52,0,0,1-.29-.09.5.5,0,0,1-.11-.7L168,179.7a.49.49,0,0,1,.7-.11.51.51,0,0,1,.11.7l-120,163.89A.51.51,0,0,1,48.4,344.38Z" style="fill:#fff"></path><path d="M48.4,356.51a.52.52,0,0,1-.29-.09.51.51,0,0,1-.11-.7l121-170.6a.51.51,0,0,1,.7-.11.5.5,0,0,1,.11.69l-121,170.6A.49.49,0,0,1,48.4,356.51Z" style="fill:#fff"></path><path d="M48.4,368.64a.5.5,0,0,1-.41-.78L170.05,190.55a.5.5,0,1,1,.82.57L48.81,368.42A.47.47,0,0,1,48.4,368.64Z" style="fill:#fff"></path><path d="M48.4,380.77a.6.6,0,0,1-.28-.08A.51.51,0,0,1,48,380L171.08,196a.5.5,0,1,1,.83.55l-123.09,184A.52.52,0,0,1,48.4,380.77Z" style="fill:#fff"></path><path d="M58,378.2a.43.43,0,0,1-.27-.08.49.49,0,0,1-.15-.69l114.56-176a.5.5,0,0,1,.69-.14.49.49,0,0,1,.14.69L58.39,378A.51.51,0,0,1,58,378.2Z" style="fill:#fff"></path><path d="M65.41,378.2a.45.45,0,0,1-.27-.08.5.5,0,0,1-.15-.69l108.15-170.6a.5.5,0,0,1,.84.54L65.83,378A.49.49,0,0,1,65.41,378.2Z" style="fill:#fff"></path><path d="M72.23,378.61a.48.48,0,0,1-.26-.07.49.49,0,0,1-.16-.69L174.17,212.26a.49.49,0,0,1,.68-.17.51.51,0,0,1,.17.69L72.66,378.37A.5.5,0,0,1,72.23,378.61Z" style="fill:#fff"></path><path d="M81.87,375.55a.48.48,0,0,1-.26-.07.5.5,0,0,1-.17-.68l125.45-212a.5.5,0,0,1,.68-.17.5.5,0,0,1,.18.68L82.3,375.31A.51.51,0,0,1,81.87,375.55Z" style="fill:#fff"></path><path d="M89.61,375.55a.54.54,0,0,1-.25-.06.51.51,0,0,1-.19-.68L203.26,173.57a.51.51,0,0,1,.68-.19.5.5,0,0,1,.19.68L90,375.3A.5.5,0,0,1,89.61,375.55Z" style="fill:#fff"></path><path d="M97.34,375.55a.46.46,0,0,1-.23-.06.49.49,0,0,1-.2-.68L201.27,182.65a.5.5,0,1,1,.88.48L97.78,375.29A.49.49,0,0,1,97.34,375.55Z" style="fill:#fff"></path><path d="M105.08,375.55a.49.49,0,0,1-.44-.73l94.65-183.08a.5.5,0,0,1,.67-.22.51.51,0,0,1,.21.68L105.53,375.28A.51.51,0,0,1,105.08,375.55Z" style="fill:#fff"></path><path d="M112.82,375.55a.44.44,0,0,1-.22-.05.5.5,0,0,1-.23-.67l84.93-174a.5.5,0,0,1,.67-.23.51.51,0,0,1,.23.67l-84.93,174A.49.49,0,0,1,112.82,375.55Z" style="fill:#fff"></path><path d="M120.56,375.55a.52.52,0,0,1-.21,0,.51.51,0,0,1-.25-.66l75.21-164.93a.49.49,0,0,1,.66-.25.5.5,0,0,1,.25.66L121,375.26A.49.49,0,0,1,120.56,375.55Z" style="fill:#fff"></path><path d="M447.67,374.87a.51.51,0,0,1-.34-.14L218,159.41a.5.5,0,0,1,.69-.73L448,374a.5.5,0,0,1,0,.71A.52.52,0,0,1,447.67,374.87Z" style="fill:#fff"></path><path d="M432.81,374.87a.49.49,0,0,1-.35-.15L218,164.33a.5.5,0,1,1,.7-.72L433.16,374a.5.5,0,0,1-.35.86Z" style="fill:#fff"></path><path d="M418,374.87a.48.48,0,0,1-.36-.16L216.75,169.24a.49.49,0,0,1,0-.7.5.5,0,0,1,.71,0L418.3,374a.49.49,0,0,1,0,.7A.5.5,0,0,1,418,374.87Z" style="fill:#fff"></path><path d="M403.08,374.87a.52.52,0,0,1-.36-.16L215.51,174.16a.51.51,0,0,1,0-.71.5.5,0,0,1,.71,0L403.45,374a.5.5,0,0,1,0,.71A.52.52,0,0,1,403.08,374.87Z" style="fill:#fff"></path><path d="M388.22,374.87a.5.5,0,0,1-.37-.17L214.28,179.07a.51.51,0,0,1,.05-.71.49.49,0,0,1,.7,0L388.6,374a.51.51,0,0,1-.38.84Z" style="fill:#fff"></path><path d="M373.36,374.87a.53.53,0,0,1-.38-.18L213.05,184a.49.49,0,0,1,.06-.7.51.51,0,0,1,.71.06L373.74,374a.51.51,0,0,1-.06.71A.49.49,0,0,1,373.36,374.87Z" style="fill:#fff"></path><path d="M358.5,374.87a.51.51,0,0,1-.4-.2L211.82,188.89a.5.5,0,0,1,.08-.7.5.5,0,0,1,.7.08L358.89,374.06a.5.5,0,0,1-.08.7A.51.51,0,0,1,358.5,374.87Z" style="fill:#fff"></path><path d="M343.64,374.87a.52.52,0,0,1-.41-.21L210.58,193.8a.5.5,0,1,1,.81-.59L344,374.07a.51.51,0,0,1-.11.7A.53.53,0,0,1,343.64,374.87Z" style="fill:#fff"></path><path d="M328.77,374.87a.5.5,0,0,1-.41-.22l-119-175.94a.5.5,0,0,1,.83-.56l119,175.93a.51.51,0,0,1-.14.7A.47.47,0,0,1,328.77,374.87Z" style="fill:#fff"></path><path d="M313.91,374.87a.52.52,0,0,1-.43-.24l-105.36-171a.48.48,0,0,1,.16-.68.49.49,0,0,1,.69.16l105.37,171a.5.5,0,0,1-.17.69A.5.5,0,0,1,313.91,374.87Z" style="fill:#fff"></path><path d="M299.05,374.87a.51.51,0,0,1-.44-.26L206.88,208.52a.5.5,0,0,1,.88-.49l91.73,166.09a.5.5,0,0,1-.2.68A.44.44,0,0,1,299.05,374.87Z" style="fill:#fff"></path></g><rect x="257.59" y="389.04" width="195.82" height="6.33" style="fill:#263238"></rect><rect x="257.59" y="389.04" width="195.82" height="6.33" style="fill:#fff;opacity:0.30000000000000004"></rect><rect x="257.59" y="389.04" width="195.82" height="2.91" style="fill:#fff;opacity:0.30000000000000004"></rect><rect x="257.59" y="391.79" width="195.82" height="1.37" style="opacity:0.30000000000000004"></rect><path d="M209.47,209.84l12.76-63.9H217L205,155.62l-6,21.6H184.32l-6-21.6-11.93-9.68h-5.28l12.77,63.9L106.07,395.38h43.11l1.71-8c6.14-1.62,21.63-2.86,40.77-3.2,19.14.34,34.62,1.58,40.77,3.2l1.71,8h43.1Zm-21.94-25.43h8.26a.91.91,0,0,1,.87,1.16l-5,17.87-5-17.87A.9.9,0,0,1,187.53,184.41ZM153,378.67,190.24,223.2a1.15,1.15,0,0,1,1.13-.89h.57a1.14,1.14,0,0,1,1.13.89l37.26,155.47Z" style="fill:#407BFF"></path><path d="M277.24,395.38,209.47,209.84l12.76-63.9L211,155.62l-4.58,21.6H184.32l-6-21.6-11.93-9.68,17.08,63.9L127.86,395.38h21.32l1.71-8c7.25-1.91,27.52-3.29,51.45-3.29s44.29,1.38,51.67,3.29l1.91,8ZM204.61,185.57l-4.22,19.91a1.24,1.24,0,0,1-1.22,1h-5.66a1.34,1.34,0,0,1-1.28-1l-5.57-19.91a.9.9,0,0,1,.87-1.16h16.13A1,1,0,0,1,204.61,185.57ZM153,378.67,190.24,223.2a1.15,1.15,0,0,1,1.13-.89h11a1.25,1.25,0,0,1,1.19.89l47.75,155.47Z" style="fill:#fff;opacity:0.30000000000000004"></path><path d="M250.44,395.38h-13v-6a1.44,1.44,0,0,1,1.45-1.44h5.57a3,3,0,0,1,2.55,1.46Z" style="opacity:0.30000000000000004"></path><path d="M250.44,395.38H128.89V389H246.71a2.27,2.27,0,0,1,.29.4l1.36,2.35.09.16.71,1.21Z" style="fill:#263238"></path><path d="M250.44,395.38H128.89V389H246.71a2.27,2.27,0,0,1,.29.4l1.36,2.35.09.16.71,1.21Z" style="fill:#fff;opacity:0.30000000000000004"></path><path d="M248.45,392H128.89V389H246.71a2.27,2.27,0,0,1,.29.4l1.36,2.35Z" style="fill:#fff;opacity:0.30000000000000004"></path><polygon points="249.16 393.16 128.89 393.16 128.89 391.79 248.36 391.79 248.45 391.95 249.16 393.16" style="opacity:0.30000000000000004"></polygon><rect x="44.63" y="372.02" width="408.79" height="6.33" style="fill:#263238"></rect><rect x="44.63" y="372.02" width="408.79" height="6.33" style="fill:#fff;opacity:0.30000000000000004"></rect><rect x="44.63" y="372.02" width="408.79" height="2.91" style="fill:#fff;opacity:0.30000000000000004"></rect><rect x="44.63" y="374.77" width="408.79" height="1.37" style="opacity:0.30000000000000004"></rect><path d="M192.71,378.67H153L190.24,223.2a1.15,1.15,0,0,1,1.13-.89h.57a1.17,1.17,0,0,1,.77.3V199.68l-1.05,3.76-5-17.87a.9.9,0,0,1,.87-1.16h5.18v-7.19h-8.39l-6-21.6-11.93-9.68h-5.28l12.77,63.9L106.07,395.38h43.11l1.71-8c6.14-1.62,21.63-2.86,40.77-3.2l1.05,0Z" style="fill:#407BFF"></path><path d="M192.71,378.67H153L190.24,223.2a1.15,1.15,0,0,1,1.13-.89h1.34V206.19a1.31,1.31,0,0,1-.48-.71l-5.57-19.91a.9.9,0,0,1,.87-1.16h5.18v-7.19h-8.39l-6-21.6-11.93-9.68,17.08,63.9L127.86,395.38h21.32l1.71-8c6.25-1.65,22.2-2.9,41.82-3.21Z" style="fill:#fff;opacity:0.30000000000000004"></path><path d="M122.48,389.42v6h-13l1.28-2.22.71-1.21.09-.16,1.36-2.35a2.27,2.27,0,0,1,.29-.4,3,3,0,0,1,2.25-1.06H121a1.41,1.41,0,0,1,1.38,1.06A1.21,1.21,0,0,1,122.48,389.42Z" style="opacity:0.30000000000000004"></path><path d="M122.48,389.42v6H44.63V389h77.79A1.21,1.21,0,0,1,122.48,389.42Z" style="fill:#263238"></path><path d="M122.48,389.42v6H44.63V389h77.79A1.21,1.21,0,0,1,122.48,389.42Z" style="fill:#fff;opacity:0.30000000000000004"></path><path d="M122.48,389.42V392H44.63V389h77.79A1.21,1.21,0,0,1,122.48,389.42Z" style="fill:#fff;opacity:0.30000000000000004"></path><rect x="44.63" y="391.79" width="77.85" height="1.37" style="opacity:0.30000000000000004"></rect></g><g id="freepik--Floor--inject-143"><path d="M412.39,407.88s2.44-8.18-2.5-9.81-7.86-5.45-7.7-9.77-5-8.53-8.92-4.48-3.38-3.11-8.58-4.86-9.6,2.49-8.17,6.35-3.71,6.27-9.85,3-12.89,2.69-11.59,7.37.23,5.19-3.65,3.63-10.83,2.86-8.4,8.58S412.39,407.88,412.39,407.88Z" style="fill:#263238"></path><path d="M412.39,407.88s2.44-8.18-2.5-9.81-7.86-5.45-7.7-9.77-5-8.53-8.92-4.48-3.38-3.11-8.58-4.86-9.6,2.49-8.17,6.35-3.71,6.27-9.85,3-12.89,2.69-11.59,7.37.23,5.19-3.65,3.63-10.83,2.86-8.4,8.58S412.39,407.88,412.39,407.88Z" style="fill:#fff;opacity:0.30000000000000004;isolation:isolate"></path><path d="M203.83,409.4c4.38-3,.44-8-4-8.62s-8.78-5.83-9-9.16-8.1-13.56-20.37-7.24-8.54.93-17.42-.85-14.47,3.34-10.58,7.17c0,0-8.91-1.51-12.59,4.13s0,9.16,0,9.16-16.77-.34-15.26,6.69S203.83,409.4,203.83,409.4Z" style="fill:#263238"></path><path d="M203.83,409.4c4.38-3,.44-8-4-8.62s-8.78-5.83-9-9.16-8.1-13.56-20.37-7.24-8.54.93-17.42-.85-14.47,3.34-10.58,7.17c0,0-8.91-1.51-12.59,4.13s0,9.16,0,9.16-16.77-.34-15.26,6.69S203.83,409.4,203.83,409.4Z" style="fill:#fff;opacity:0.30000000000000004;isolation:isolate"></path><path d="M419.16,406.83v12H80.84v-12a3.58,3.58,0,0,1,3.54-3.77H415.62A3.58,3.58,0,0,1,419.16,406.83Z" style="fill:#263238"></path><rect x="100.13" y="403.06" width="21.03" height="15.78" style="fill:#407BFF"></rect><rect x="140.44" y="403.06" width="20.16" height="15.78" style="fill:#407BFF"></rect><rect x="179.88" y="403.06" width="21.03" height="15.78" style="fill:#407BFF"></rect><rect x="220.2" y="403.06" width="20.16" height="15.78" style="fill:#407BFF"></rect><rect x="259.64" y="403.06" width="20.16" height="15.78" style="fill:#407BFF"></rect><rect x="299.08" y="403.06" width="21.03" height="15.78" style="fill:#407BFF"></rect><rect x="339.4" y="403.06" width="20.16" height="15.78" style="fill:#407BFF"></rect><rect x="378.84" y="403.06" width="21.03" height="15.78" style="fill:#407BFF"></rect><g style="opacity:0.6000000000000001;isolation:isolate"><rect x="100.13" y="403.06" width="21.03" height="15.78" style="fill:#fff"></rect><rect x="140.44" y="403.06" width="20.16" height="15.78" style="fill:#fff"></rect><rect x="179.88" y="403.06" width="21.03" height="15.78" style="fill:#fff"></rect><rect x="220.2" y="403.06" width="20.16" height="15.78" style="fill:#fff"></rect><rect x="259.64" y="403.06" width="20.16" height="15.78" style="fill:#fff"></rect><rect x="299.08" y="403.06" width="21.03" height="15.78" style="fill:#fff"></rect><rect x="339.4" y="403.06" width="20.16" height="15.78" style="fill:#fff"></rect><rect x="378.84" y="403.06" width="21.03" height="15.78" style="fill:#fff"></rect></g><path d="M419.16,406.83v12H80.84v-12a3.58,3.58,0,0,1,3.54-3.77H415.62A3.58,3.58,0,0,1,419.16,406.83Z" style="fill:#fff;opacity:0.2;isolation:isolate"></path></g><g id="freepik--Bicycle--inject-143"><path d="M297.42,325.35c.39.27,32.57,27.83,54.72,30.46l-1.25,6.07s-26.67-5-55.45-31.63Z" style="fill:#407BFF"></path><path d="M297.42,325.35c.39.27,32.57,27.83,54.72,30.46l-1.25,6.07s-26.67-5-55.45-31.63Z" style="fill:#fff;opacity:0.1"></path><path d="M292.58,309.17s6.57-.32,7.45-.42,7.69.08,7.38-6.08-6.07-6.13-7.7-6.12l-10.13.05a1.6,1.6,0,0,1-1.61-1.41h0a1.61,1.61,0,0,1,1.48-1.8l.86-.06s8.25,0,10.57.17,10-.39,10,9-7.84,9.14-9.32,9.15l-8.84.05Z" style="fill:#263238"></path><path d="M292.58,309.17s6.57-.32,7.45-.42,7.69.08,7.38-6.08-6.07-6.13-7.7-6.12l-10.13.05a1.6,1.6,0,0,1-1.61-1.41h0a1.61,1.61,0,0,1,1.48-1.8l.86-.06s8.25,0,10.57.17,10-.39,10,9-7.84,9.14-9.32,9.15l-8.84.05Z" style="fill:#fff;opacity:0.30000000000000004"></path><rect x="323.59" y="375.53" width="8.58" height="3.46" transform="translate(655.77 754.52) rotate(180)" style="fill:#263238"></rect><rect x="324.55" y="383.49" width="21.27" height="2.87" transform="translate(331.7 895.33) rotate(-138.56)" style="fill:#263238"></rect><rect x="324.55" y="383.49" width="21.27" height="2.87" transform="translate(331.7 895.33) rotate(-138.56)" style="fill:#fff;opacity:0.05"></rect><path d="M359.32,379.87a38.18,38.18,0,1,0,38.18-38.18A38.18,38.18,0,0,0,359.32,379.87Zm4.63,0a33.56,33.56,0,1,1,33.55,33.56A33.55,33.55,0,0,1,364,379.87Z" style="fill:#263238"></path><path d="M359.32,379.87a38.18,38.18,0,1,0,38.18-38.18A38.18,38.18,0,0,0,359.32,379.87Zm4.63,0a33.56,33.56,0,1,1,33.55,33.56A33.55,33.55,0,0,1,364,379.87Z" style="fill:#fff;opacity:0.5"></path><path d="M356.39,379.87a41.12,41.12,0,1,0,41.11-41.11A41.12,41.12,0,0,0,356.39,379.87Zm5,0A36.14,36.14,0,1,1,397.5,416,36.14,36.14,0,0,1,361.37,379.87Z" style="fill:#263238"></path><path d="M234.13,379.87a38.18,38.18,0,1,0,38.18-38.18A38.18,38.18,0,0,0,234.13,379.87Zm4.63,0a33.55,33.55,0,1,1,33.55,33.56A33.55,33.55,0,0,1,238.76,379.87Z" style="fill:#263238"></path><path d="M234.13,379.87a38.18,38.18,0,1,0,38.18-38.18A38.18,38.18,0,0,0,234.13,379.87Zm4.63,0a33.55,33.55,0,1,1,33.55,33.56A33.55,33.55,0,0,1,238.76,379.87Z" style="fill:#fff;opacity:0.5"></path><path d="M231.19,379.87a41.12,41.12,0,1,0,41.12-41.11A41.12,41.12,0,0,0,231.19,379.87Zm5,0A36.13,36.13,0,1,1,272.31,416,36.13,36.13,0,0,1,236.18,379.87Z" style="fill:#263238"></path><polygon points="307.56 296.77 299.45 322.82 296.09 321.73 303.81 295.92 307.56 296.77" style="fill:#263238"></polygon><path d="M395.45,379.92l-.71-1.15h0l-31.81-51.61.89-3.09-2.88-.83-.53,1.86-1,3.54-16.95,58.91-46-55.35,1.16-3.56,1.15-3.54.73-2.27-3.36-1.09L289.84,341l-7.94,24.43-12.49,16.35,1.65,1.24L283.89,366l9.31-24,2.12-6.51L343,392.85v0l52.4-11.2-.33-1.51ZM345,389.39l17-59.14,30.23,49Z" style="fill:#407BFF"></path><path d="M395.45,379.92l-.71-1.15h0l-31.81-51.61.89-3.09-2.88-.83-18.5,64.31-46-55.35,1.16-3.56,1.15-3.54.73-2.27-3.36-1.09L289.84,341l-7.94,24.43-12.49,16.35,1.65,1.24L283.89,366l9.31-24,2.12-6.51L343,392.85v0l52.4-11.2-.33-1.51ZM345,389.39l17-59.14,30.23,49Z" style="fill:#fff;opacity:0.1"></path><polygon points="372.39 314.89 368.06 318.16 366.1 317.68 363.82 324.06 360.94 323.23 364.76 314.89 366.09 313.61 372.39 314.89" style="fill:#263238"></polygon><polygon points="372.39 314.89 368.06 318.16 366.1 317.68 363.82 324.06 360.94 323.23 364.76 314.89 366.09 313.61 372.39 314.89" style="fill:#fff;opacity:0.4"></polygon><path d="M351.14,311c5.53-1.3,11.25.15,17.12,3.9h5.91s7.08-3.78,8.5-5.32.47-1.89.47-1.89c-9,1.32-26.69-.59-29.05-.59S350.29,309.7,351.14,311Z" style="fill:#263238"></path><path d="M351.14,311c5.53-1.3,11.25.15,17.12,3.9h5.91s7.08-3.78,8.5-5.32.47-1.89.47-1.89c-9,1.32-26.69-.59-29.05-.59S350.29,309.7,351.14,311Z" style="fill:#fff;opacity:0.1"></path><path d="M332.26,391.51A10.48,10.48,0,1,0,342.73,381,10.48,10.48,0,0,0,332.26,391.51Zm9.19-7v5.1L336.71,388A6.94,6.94,0,0,1,341.45,384.47Zm7.34,3.63-4.68,1.52v-5.13A7,7,0,0,1,348.79,388.1Zm.83,3.41a7.28,7.28,0,0,1-1.72,4.73l-3-4.09,4.63-1.51A6.36,6.36,0,0,1,349.62,391.51Zm-6.89,7.17a6.74,6.74,0,0,1-3-.73l3.08-4.24,3.05,4.2A6.62,6.62,0,0,1,342.73,398.68Zm-6.89-7.17a7.3,7.3,0,0,1,.07-.94l4.75,1.54-3.05,4.19A7.28,7.28,0,0,1,335.84,391.51Z" style="fill:#263238"></path><path d="M332.26,391.51A10.48,10.48,0,1,0,342.73,381,10.48,10.48,0,0,0,332.26,391.51Zm9.19-7v5.1L336.71,388A6.94,6.94,0,0,1,341.45,384.47Zm7.34,3.63-4.68,1.52v-5.13A7,7,0,0,1,348.79,388.1Zm.83,3.41a7.28,7.28,0,0,1-1.72,4.73l-3-4.09,4.63-1.51A6.36,6.36,0,0,1,349.62,391.51Zm-6.89,7.17a6.74,6.74,0,0,1-3-.73l3.08-4.24,3.05,4.2A6.62,6.62,0,0,1,342.73,398.68Zm-6.89-7.17a7.3,7.3,0,0,1,.07-.94l4.75,1.54-3.05,4.19A7.28,7.28,0,0,1,335.84,391.51Z" style="fill:#fff;opacity:0.4"></path><rect x="338.16" y="395.5" width="21.27" height="2.87" transform="translate(347.56 925.35) rotate(-138.56)" style="fill:#263238"></rect><rect x="338.16" y="395.5" width="21.27" height="2.87" transform="translate(347.56 925.35) rotate(-138.56)" style="fill:#fff;opacity:0.05"></rect><rect x="352.1" y="401.59" width="8.58" height="3.46" transform="translate(712.78 806.64) rotate(180)" style="fill:#263238"></rect><polygon points="295.44 294.52 303.81 296.12 302.57 300.04 299.93 299.64 299.19 300.83 294.56 299.86 295.44 294.52" style="fill:#263238"></polygon><path d="M305.93,311s6.58-.33,7.46-.42,7.69.07,7.37-6.09-6.06-6.13-7.69-6.12l-10.13.05a1.6,1.6,0,0,1-1.61-1.41h0a1.61,1.61,0,0,1,1.48-1.8l.86-.06s8.25,0,10.57.17,10-.39,10,9-7.84,9.14-9.32,9.15l-8.84.06Z" style="fill:#263238"></path><path d="M305.93,311s6.58-.33,7.46-.42,7.69.07,7.37-6.09-6.06-6.13-7.69-6.12l-10.13.05a1.6,1.6,0,0,1-1.61-1.41h0a1.61,1.61,0,0,1,1.48-1.8l.86-.06s8.25,0,10.57.17,10-.39,10,9-7.84,9.14-9.32,9.15l-8.84.06Z" style="fill:#fff;opacity:0.5"></path><path d="M268,381.53a4.34,4.34,0,1,0,4.34-4.34A4.34,4.34,0,0,0,268,381.53Z" style="fill:#263238"></path><path d="M268,381.53a4.34,4.34,0,1,0,4.34-4.34A4.34,4.34,0,0,0,268,381.53Z" style="fill:#fff;opacity:0.6000000000000001"></path><path d="M392.92,381.53a4.34,4.34,0,1,0,4.34-4.34A4.34,4.34,0,0,0,392.92,381.53Z" style="fill:#263238"></path><path d="M392.92,381.53a4.34,4.34,0,1,0,4.34-4.34A4.34,4.34,0,0,0,392.92,381.53Z" style="fill:#fff;opacity:0.6000000000000001"></path></g><g id="freepik--Character--inject-143"><path d="M328.59,255s-5.09,15.59-6.48,17.35-17.36,15.8-17.36,15.8a3.09,3.09,0,0,0-1.89,1.26c-.59,1-4.54,9.2-3.26,10.18s5.25,2.85,5.44,3.1,3.7-9.48,3.7-9.48l.31-2.82s15.86-11.41,17.82-12.75,10.6-22.36,10.6-22.36Z" style="fill:#e4897b"></path><path d="M315.35,415.19,311.17,414c1.53-21.1,5.67-46.57,9.19-65.67.55-3,1.09-5.82,1.6-8.46.24-1.25.48-2.46.7-3.62,1.12-5.72,2.07-10.24,2.65-13,.43-2,.67-3.16.67-3.16l15,4.37-1.25,3.79-4.14,12.52-.47,1.43-2.73,8.26-4.65,14.08C327.14,386.06,315.35,415.19,315.35,415.19Z" style="fill:#e4897b"></path><path d="M351.85,414.16l-4.32-.41c-2.26-22.89-2.35-51.39-2-71.2.05-3.06.11-5.93.17-8.53,0-.13,0-.26,0-.38.12-5.16.26-9.26.35-11.85.09-2,.13-3.15.13-3.15l15.58,1.74-1,6.48-1.42,9.52-.28,1.87-1,6.49-2.6,17.4C358.51,383.46,351.85,414.16,351.85,414.16Z" style="fill:#e4897b"></path><path d="M359.34,336.38,345.66,334c0-.13,0-.26,0-.38.12-5.16.26-9.26.35-11.85l14.74,5.07Z" style="opacity:0.2;isolation:isolate"></path><path d="M323.8,330.57,338.2,333l1.58-4.76-14.47-5C324.94,325,324.42,327.52,323.8,330.57Z" style="opacity:0.2;isolation:isolate"></path><path d="M361.11,279.27s9.34,21.82.62,53.46l-17-2V314.47L341,330.19,324,326.76c5.25-25.67,10-37.32,10-37.32l1.27-12.92Z" style="fill:#407BFF"></path><path d="M361.11,279.27s9.34,21.82.62,53.46l-17-2V314.47L341,330.19,324,326.76c5.25-25.67,10-37.32,10-37.32l1.27-12.92Z" style="fill:#fff;opacity:0.7000000000000001;isolation:isolate"></path><polygon points="353.21 284 339.78 282.81 339.78 278.46 353.21 279.62 353.21 284" style="fill:#263238"></polygon><polygon points="354.39 279.72 361.13 280.3 361.73 284.75 354.39 284.11 354.39 279.72" style="fill:#263238"></polygon><polygon points="338.75 278.37 338.75 282.72 335.74 282.46 335.74 278.11 338.75 278.37" style="fill:#263238"></polygon><path d="M342.82,280v2a1.56,1.56,0,0,0,1.43,1.57l3.17.28h.14a1.57,1.57,0,0,0,1.07-.41,1.6,1.6,0,0,0,.51-1.16v-2a1.56,1.56,0,0,0-1.44-1.56l-3.17-.28a1.58,1.58,0,0,0-1.71,1.57Zm.81,2v-.66h0l.89.07a.56.56,0,0,0,.58-.5.54.54,0,0,0-.5-.58l-.89-.07-.12,0V280a.73.73,0,0,1,.25-.56.74.74,0,0,1,.51-.2h.07l3.17.27a.77.77,0,0,1,.7.76v2a.73.73,0,0,1-.25.56.75.75,0,0,1-.59.2l-3.17-.28A.76.76,0,0,1,343.63,282.05Z" style="fill:#fff"></path><path d="M353.9,413.28c0-.54-6.68-.11-6.68-.11s-4.11,4.17-8.1,5.11-1.76,3.33,2.7,3.33h11C356,421.61,354,418.91,353.9,413.28Z" style="fill:#263238"></path><path d="M343.12,414.71A.62.62,0,0,1,343,414a.68.68,0,0,1,.35-.45,2.73,2.73,0,0,1,1.5-.16c-.54-.29-1-.64-1-1s.13-.41.44-.56a1,1,0,0,1,.86,0c.91.38,1.47,1.93,1.49,2a.22.22,0,0,1,0,.14l0,0h0a.1.1,0,0,1-.06,0,8.29,8.29,0,0,1-2.76.84A.88.88,0,0,1,343.12,414.71Zm.37-.85a.33.33,0,0,0-.19.23c-.07.26,0,.33,0,.35.32.26,1.54-.11,2.52-.52A4.28,4.28,0,0,0,343.49,413.86Zm.87-1.71c-.09,0-.24.13-.24.22,0,.3,1,.82,2,1.2a2.93,2.93,0,0,0-1.14-1.43.66.66,0,0,0-.27-.06A.7.7,0,0,0,344.36,412.15Z" style="fill:#407BFF"></path><path d="M316.54,413.28c0-.54-6.68-.11-6.68-.11s-4.11,4.17-8.1,5.11-1.76,3.33,2.7,3.33h11C318.65,421.61,316.67,418.91,316.54,413.28Z" style="fill:#263238"></path><path d="M305.76,414.71a.63.63,0,0,1-.17-.71.72.72,0,0,1,.36-.45,2.73,2.73,0,0,1,1.5-.16c-.54-.29-1-.64-1-1s.13-.41.44-.56a1,1,0,0,1,.86,0c.91.38,1.47,1.93,1.49,2a.17.17,0,0,1,0,.14l0,0h0l-.06,0a8.28,8.28,0,0,1-2.77.84A.87.87,0,0,1,305.76,414.71Zm.37-.85a.33.33,0,0,0-.19.23c-.07.26,0,.33,0,.35.31.26,1.54-.11,2.52-.52A4.28,4.28,0,0,0,306.13,413.86Zm.87-1.71c-.09,0-.24.13-.24.22,0,.3,1,.82,2,1.2a2.93,2.93,0,0,0-1.14-1.43.66.66,0,0,0-.27-.06A.67.67,0,0,0,307,412.15Z" style="fill:#407BFF"></path><path d="M344.71,314.47c-2.9-6-4.93-11-4.93-11s-.64,15.21,1.25,26.67Z" style="opacity:0.2;isolation:isolate"></path><path d="M333.17,238.37c1.37,1.16.52,2.55-.29,3.51s-2.42,2.24-.31,4,.37,4.46.37,4.46l25.29-.24s4.49-6.36.75-8.85-3.84-1.87-3.57-4.86-2.63-3.69-3.64-5.7A6.33,6.33,0,0,1,351,226c.24-2.09-5.79-2.91-8.08-1.56s-12,6.3-12,6.3S328.77,234.63,333.17,238.37Z" style="fill:#263238"></path><path d="M388.17,220.92a.51.51,0,0,0,.72.33l5.4-2.34a.68.68,0,0,0,.37-.81l-3.43-11.17a.59.59,0,0,0-.75-.4l-5.39,2.35a.76.76,0,0,0-.35.88Z" style="fill:#263238"></path><path d="M385.31,209.43l3.46,11.27a.44.44,0,0,0,.64.33l4.58-2c.3-.13.79-.55.69-.87l-3.47-11.31c-.1-.32-.72-.33-1-.2l-4.57,2A.62.62,0,0,0,385.31,209.43Z" style="fill:#fff;opacity:0.5"></path><path d="M342.16,217.53s-2.48-4.85-9,2.85-.17,19,5.92,17.08S342.16,217.53,342.16,217.53Z" style="fill:#263238"></path><path d="M341.31,241.42a6.6,6.6,0,0,1-.65,2.56l3.77,7.19,7.51-8.07c-2.83-.37-4.48-3.86-5.33-6.45a23.64,23.64,0,0,1-.72-2.76.66.66,0,0,0,0-.09l-.17.11-6.39,3.6A4.3,4.3,0,0,1,341.31,241.42Z" style="fill:#e4897b"></path><path d="M339.31,237.51a4.3,4.3,0,0,1,2,3.91,8.31,8.31,0,0,0,5.3-4.77,23.64,23.64,0,0,1-.72-2.76l-.19,0Z" style="opacity:0.2;isolation:isolate"></path><path d="M335.12,219.06s2.43-3.37,8.52-2.08,9.23,7.63,6.3,11.28S335.12,219.06,335.12,219.06Z" style="fill:#263238"></path><path d="M338.83,219.92c5.53-2,8.36.34,10.8,5.89,3.06,6.93,3.29,12.55-4.16,13.5C335.35,240.61,329.66,223.2,338.83,219.92Z" style="fill:#e4897b"></path><path d="M346,226.78a12.42,12.42,0,0,0,2.43,1.71,1.61,1.61,0,0,1-1.23,1.15Z" style="fill:#de5753"></path><path d="M342.41,227.54c.17.45.07.9-.23,1s-.68-.16-.86-.61-.07-.9.23-1S342.24,227.09,342.41,227.54Z" style="fill:#263238"></path><path d="M341.44,227l.83-.76S342.1,227.25,341.44,227Z" style="fill:#263238"></path><path d="M348,225.29c.17.45.07.91-.23,1s-.68-.16-.86-.61-.07-.91.23-1S347.8,224.84,348,225.29Z" style="fill:#263238"></path><path d="M347,224.76l.83-.76S347.66,225,347,224.76Z" style="fill:#263238"></path><path d="M338.89,225.8l-.12,0a.38.38,0,0,1-.22-.47,3.37,3.37,0,0,1,2.36-1.92.36.36,0,0,1,.43.27.37.37,0,0,1-.27.44,2.67,2.67,0,0,0-1.83,1.45A.39.39,0,0,1,338.89,225.8Z" style="fill:#263238"></path><path d="M344.92,222.43a.35.35,0,0,1-.28-.13.37.37,0,0,1,.05-.51,3.09,3.09,0,0,1,2.68-.4.35.35,0,0,1,.27.43.36.36,0,0,1-.44.27,2.44,2.44,0,0,0-2.05.26A.34.34,0,0,1,344.92,222.43Z" style="fill:#263238"></path><path d="M336.13,231.39s1-5.47-.69-8.83c0,0,9.35-8.39,13.86,2.53,0,0-2.46-10.25-12-7.07s-4.56,17,1.82,19.44C339.09,237.46,335.55,234.8,336.13,231.39Z" style="fill:#263238"></path><path d="M337.45,232.23a2.57,2.57,0,0,0-3.4-1.28c-1.65.8-1.21,4.61,3.35,3.93C338.06,234.78,338.19,234.06,337.45,232.23Z" style="fill:#e4897b"></path><path d="M348.44,231.67a14.42,14.42,0,0,0,0,2.15l-.37.08c-1.68.36-2.57,0-3.06-.57a2.3,2.3,0,0,1-.48-.93,1.92,1.92,0,0,1-.07-.59,8.06,8.06,0,0,0,3.43,0Z" style="fill:#263238"></path><path d="M347.86,231.78l0,.64c-1.58.33-2.74.35-3.34,0a1.92,1.92,0,0,1-.07-.59A8.06,8.06,0,0,0,347.86,231.78Z" style="fill:#fff"></path><path d="M348,233.9c-1.68.36-2.57,0-3.06-.57a5.71,5.71,0,0,1,1.94,0A2.11,2.11,0,0,1,348,233.9Z" style="fill:#de5753"></path><path d="M337.73,229.76a.26.26,0,0,1-.18-.07.25.25,0,0,1,0-.35c3.58-3.63.83-9.42.81-9.48a.26.26,0,0,1,.11-.34.27.27,0,0,1,.34.12c0,.06,2.93,6.17-.9,10.05A.26.26,0,0,1,337.73,229.76Z" style="fill:#263238"></path><path d="M338.87,220.37s1,9.89-4.74,11.82-2.85-10.1-1.05-12.74C333.91,218.24,337.3,216,338.87,220.37Z" style="fill:#263238"></path><path d="M396.57,221.78a6.77,6.77,0,0,0,.15-6.45,2.11,2.11,0,0,0-.28-.44c-.41-.45-6.54-4.27-7.51-3.06s.36,3.94.29,5.09c0,.65,1.88,1.74,3.53,2.55-4.08,5.63-13.27,18.19-14.75,19.11a41.6,41.6,0,0,1-7.13,2.3,135.5,135.5,0,0,1-15.93,3.35l4.35,10.47s3.34-1.44,7.58-3.37l3.84-1.79h0c5.7-2.69,11.7-5.73,13.14-7.23C386.09,240,393.29,227.53,396.57,221.78Z" style="fill:#e4897b"></path><path d="M340.66,244l-7.49,4.55s4.78,5.88,11.81,4.82,14.19-10.86,14.19-10.86S347.12,242.78,340.66,244Z" style="fill:#e4897b"></path><path d="M362,261.63l.08,20.44-27.27-2.35S333.74,273,333,268.3l-.7.74-3.46-3.11L325.57,263s.78-12.6,9.25-16.29c0,.12.07,3,6.62,3.65,7.7.82,16.24-8.47,16.24-8.47l12.53-1.48.53,11.43L362,255.46Z" style="fill:#407BFF"></path><g style="opacity:0.7000000000000001;isolation:isolate"><path d="M344.4,265.39l-3.23-5.14a7.06,7.06,0,0,0-2.15,3.91Z" style="fill:#fff;opacity:0.7000000000000001;isolation:isolate"></path><path d="M347.55,265.46l3.24,5.14a7.11,7.11,0,0,0,2.14-3.91Z" style="fill:#fff;opacity:0.7000000000000001;isolation:isolate"></path><path d="M338.92,265.17c0,.08,0,.17,0,.25a7,7,0,0,0,1.26,4l4.67-2.94Z" style="fill:#fff;opacity:0.7000000000000001;isolation:isolate"></path><path d="M351.79,261.4l-4.67,2.94,5.91,1.34a2.11,2.11,0,0,0,0-.26A7,7,0,0,0,351.79,261.4Z" style="fill:#fff;opacity:0.7000000000000001;isolation:isolate"></path><path d="M344.89,264.28l1.35-5.91-.26,0a7,7,0,0,0-4,1.27Z" style="fill:#fff;opacity:0.7000000000000001;isolation:isolate"></path><path d="M347.06,266.57l-1.34,5.91.26,0a7,7,0,0,0,4-1.27Z" style="fill:#fff;opacity:0.7000000000000001;isolation:isolate"></path><path d="M346,263.85l5.13-3.23a7.06,7.06,0,0,0-3.91-2.15Z" style="fill:#fff;opacity:0.7000000000000001;isolation:isolate"></path><path d="M345.94,267l-5.14,3.23a7.06,7.06,0,0,0,3.92,2.15Z" style="fill:#fff;opacity:0.7000000000000001;isolation:isolate"></path></g><path d="M334.22,227.09s6,8.91,9.42,10.59,5.38.55,5.38.55-2.54,1.41-4.49.81-7.07-4.23-11.53-10.45l1.23-1.81"></path><path d="M348.71,219.75s-.72-1.53-5.51,0-7.41,7-7.72,8-4.49,3-4.49,3l-5.42-1.06s.36-9.9,5.42-13.41c6.69-4.64,14.19-3.48,17.39-1.23a2.71,2.71,0,0,1,1,1.26C350.06,217.9,348.71,219.75,348.71,219.75Z" style="fill:#407BFF"></path><path d="M348.71,219.75s-.72-1.53-5.51,0-7.41,7-7.72,8-4.49,3-4.49,3l-5.42-1.06s4-1,4.88-1.43a24.54,24.54,0,0,0,4.11-3.62c.44-.58,4.06-5.49,9.87-6.79a25.16,25.16,0,0,0,5-1.54C350.06,217.9,348.71,219.75,348.71,219.75Z" style="fill:#263238"></path><path d="M348.71,219.75s-.72-1.53-5.51,0-7.41,7-7.72,8-4.49,3-4.49,3l-5.42-1.06s4-1,4.88-1.43a24.54,24.54,0,0,0,4.11-3.62c.44-.58,4.06-5.49,9.87-6.79a25.16,25.16,0,0,0,5-1.54C350.06,217.9,348.71,219.75,348.71,219.75Z" style="fill:#fff;opacity:0.5"></path><path d="M334.22,220.38s-5.49.33-7.63,3.1l.3.92a12.2,12.2,0,0,1,3.84-2C332.43,222,336.2,220.91,334.22,220.38Z" style="opacity:0.2;isolation:isolate"></path><path d="M330.08,217a15,15,0,0,1,8.81-.72c2,.5-.12-2.55-6.36-1Z" style="opacity:0.2;isolation:isolate"></path><path d="M341,213c.08,0,2.78.8,3.54,2s1.61-.37-.6-1.71Z" style="opacity:0.2;isolation:isolate"></path><path d="M333,268.3l-.7.74-3.46-3.11a22.25,22.25,0,0,1,2.53-7.08Z" style="opacity:0.2;isolation:isolate"></path><path d="M362,261.63c-3-2.21-3.52-9.63-3.52-9.63a5.28,5.28,0,0,0,3.5,3.46Z" style="opacity:0.2;isolation:isolate"></path></g></svg>